<svg width="15" height="15" viewBox="0 0 15 15" fill="none" xmlns="http://www.w3.org/2000/svg">
<path d="M3 10V7H3.5C3.63261 7 3.75979 7.05268 3.85355 7.14645C3.94732 7.24021 4 7.36739 4 7.5V9.5C4 9.63261 3.94732 9.75979 3.85355 9.85355C3.75979 9.94732 3.63261 10 3.5 10H3ZM7 7.5C7 7.36739 7.05268 7.24021 7.14645 7.14645C7.24021 7.05268 7.36739 7 7.5 7C7.63261 7 7.75979 7.05268 7.85355 7.14645C7.94732 7.24021 8 7.36739 8 7.5V9.5C8 9.63261 7.94732 9.75979 7.85355 9.85355C7.75979 9.94732 7.63261 10 7.5 10C7.36739 10 7.24021 9.94732 7.14645 9.85355C7.05268 9.75979 7 9.63261 7 9.5V7.5Z" fill="white"/>
<path fill-rule="evenodd" clip-rule="evenodd" d="M1 1.5C1 1.10218 1.15804 0.720644 1.43934 0.43934C1.72064 0.158035 2.10218 0 2.5 0L10.707 0L14 3.293V13.5C14 13.8978 13.842 14.2794 13.5607 14.5607C13.2794 14.842 12.8978 15 12.5 15H2.5C2.10218 15 1.72064 14.842 1.43934 14.5607C1.15804 14.2794 1 13.8978 1 13.5V1.5ZM3.5 6H2V11H3.5C3.89782 11 4.27936 10.842 4.56066 10.5607C4.84196 10.2794 5 9.89782 5 9.5V7.5C5 7.10218 4.84196 6.72064 4.56066 6.43934C4.27936 6.15804 3.89782 6 3.5 6ZM7.5 6C7.10218 6 6.72064 6.15804 6.43934 6.43934C6.15804 6.72064 6 7.10218 6 7.5V9.5C6 9.89782 6.15804 10.2794 6.43934 10.5607C6.72064 10.842 7.10218 11 7.5 11C7.89782 11 8.27936 10.842 8.56066 10.5607C8.84196 10.2794 9 9.89782 9 9.5V7.5C9 7.10218 8.84196 6.72064 8.56066 6.43934C8.27936 6.15804 7.89782 6 7.5 6ZM10 11V6H13V8H12V7H11V10H12V9H13V11H10Z" fill="white"/>
</svg>
